<?xml version="1.0" standalone="no"?><!DOCTYPE svg PUBLIC "-//W3C//DTD SVG 1.1//EN" "http://www.w3.org/Graphics/SVG/1.1/DTD/svg11.dtd"><svg t="1739112592338" class="icon" viewBox="0 0 1024 1024" version="1.1" xmlns="http://www.w3.org/2000/svg" p-id="6887" xmlns:xlink="http://www.w3.org/1999/xlink" width="200" height="200"><path d="M626.822737 0L889.263158 268.584421v688.262737C889.263158 993.953684 859.890526 1024 823.646316 1024H200.353684C164.109474 1024 134.736842 993.953684 134.736842 956.847158V67.152842C134.736842 30.046316 164.109474 0 200.353684 0h426.469053z" fill="#3478F6" p-id="6888"></path><path d="M627.900632 0.862316l260.769684 268.584421H693.099789c-36.001684 0-65.199158-30.059789-65.199157-67.139369V0.862316z" fill="#000000" opacity=".205" p-id="6889"></path><path d="M334.147368 552.421053h355.705264a24.252632 24.252632 0 0 1 0 48.505263H334.147368a24.252632 24.252632 0 1 1 0-48.505263zM334.147368 693.315368h167.073685a24.252632 24.252632 0 0 1 0 48.505264H334.147368a24.252632 24.252632 0 1 1 0-48.505264zM334.147368 834.209684h274.863158a24.252632 24.252632 0 1 1 0 48.505263H334.147368a24.252632 24.252632 0 0 1 0-48.505263z" fill="#FFFFFF" p-id="6890"></path></svg>